<svg xmlns="http://www.w3.org/2000/svg" xmlns:xlink="http://www.w3.org/1999/xlink" xml:space="preserve" version="1.1" style="shape-rendering:geometricPrecision;text-rendering:geometricPrecision;image-rendering:optimizeQuality;" viewBox="0 0 847 1058.75" x="0px" y="0px" fill-rule="evenodd" clip-rule="evenodd"><defs><style type="text/css">
   
    .fil0 {fill:black}
   
  </style></defs><g><path class="fil0" d="M742 112l2 622c0,5 -2,8 -7,11l-76 44c-4,3 -8,3 -13,0l-539 -311c-4,-3 -6,-6 -6,-11l0 -87c0,-5 1,-9 6,-12 179,-104 358,-207 537,-311 4,-2 9,-2 12,0l78 45c3,2 6,6 6,10zm-99 64l0 62c-99,57 -198,114 -296,171l-54 -31c117,-67 233,-135 350,-202zm-380 192c-8,4 -7,16 0,20l302 175 0 62 -427 -247 514 -297 54 31c-147,85 -295,171 -443,256zm457 360l-2 -595 -51 29 0 597 53 -31zm-77 31l0 -494 -54 31 0 349c1,10 -11,15 -18,10l-445 -257 0 63 517 298zm-78 -449l-195 113 195 112 0 -225z"/><path class="fil0" d="M620 719l0 -414 -8 5 0 335c0,27 -30,44 -52,30l-411 -237 0 9 471 272z"/><polygon class="fil0" points="698,715 696,172 689,175 689,719 "/><path class="fil0" d="M661 112l-9 -5 -468 271 359 207 0 -9 -291 -168c-23,-13 -23,-47 0,-60 136,-79 273,-157 409,-236z"/><path class="fil0" d="M620 215c-94,54 -188,109 -282,163l9 5c91,-53 182,-105 273,-158l0 -10z"/><path class="fil0" d="M543 349c-43,25 -84,49 -127,74l127 73 0 -147zm-25 44l0 59 -52 -29c20,-12 31,-18 52,-30z"/><path class="fil0" d="M789 113l3 620c0,23 -11,42 -31,54l-76 43c-19,12 -41,12 -61,1l-539 -312c-19,-11 -30,-30 -30,-52l0 -87c0,-23 10,-42 30,-54 182,-105 356,-206 538,-310 18,-11 41,-11 59,0l77 44c19,10 31,31 30,53zm-692 235c-12,7 -17,18 -17,32l0 87c0,13 7,24 17,30l540 312c12,6 24,6 36,0l75 -44c12,-7 19,-18 19,-32l-3 -620c1,-13 -7,-25 -17,-31l-77 -44c-11,-7 -24,-7 -35,0 -185,106 -351,203 -538,310z"/></g><text x="0" y="862" fill="#000000" font-size="5px" font-weight="bold" font-family="'Helvetica Neue', Helvetica, Arial-Unicode, Arial, Sans-serif">Created by buheicon</text><text x="0" y="867" fill="#000000" font-size="5px" font-weight="bold" font-family="'Helvetica Neue', Helvetica, Arial-Unicode, Arial, Sans-serif">from the Noun Project</text></svg>